<svg width="100%" height="100%" viewBox="0 0 13 13" fill="none" xmlns="http://www.w3.org/2000/svg" preserveAspectRatio="none">
<path d="M10.562 1.79626e-06H2.39097C2.07292 -0.000388212 1.75798 0.0627353 1.46464 0.18567C1.17131 0.308605 0.905468 0.488876 0.682722 0.715911C0.459976 0.942945 0.284807 1.21217 0.167487 1.5078C0.0501682 1.80343 -0.00693897 2.11951 -0.000484559 2.4375V4.0625C-0.000484559 4.13433 0.0280496 4.20322 0.0788407 4.25401C0.129632 4.3048 0.198519 4.33333 0.270349 4.33333H2.97868C3.05051 4.33333 3.1194 4.3048 3.17019 4.25401C3.22098 4.20322 3.24952 4.13433 3.24952 4.0625C3.24952 3.99067 3.22098 3.92179 3.17019 3.87099C3.1194 3.8202 3.05051 3.79167 2.97868 3.79167H0.541182V2.4375C0.535522 2.19086 0.57916 1.94558 0.66954 1.71602C0.759919 1.48647 0.89522 1.27727 1.06751 1.1007C1.2398 0.924118 1.44561 0.783716 1.67287 0.687722C1.90013 0.591727 2.14427 0.542072 2.39097 0.541668H10.562C11.0646 0.542242 11.5465 0.742165 11.9019 1.09758C12.2574 1.45299 12.4573 1.93487 12.4578 2.4375V3.79167H10.0203C9.94852 3.79167 9.87963 3.8202 9.82884 3.87099C9.77805 3.92179 9.74951 3.99067 9.74951 4.0625C9.74951 4.13433 9.77805 4.20322 9.82884 4.25401C9.87963 4.3048 9.94852 4.33333 10.0203 4.33333H12.7287C12.8005 4.33333 12.8694 4.3048 12.9202 4.25401C12.971 4.20322 12.9995 4.13433 12.9995 4.0625V2.4375C12.9988 1.79126 12.7418 1.17169 12.2848 0.714721C11.8278 0.257756 11.2083 0.000718652 10.562 1.79626e-06ZM12.7287 4.875C12.6569 4.875 12.588 4.90354 12.5372 4.95433C12.4864 5.00512 12.4578 5.07401 12.4578 5.14583V10.5625C12.4573 11.0651 12.2574 11.547 11.9019 11.9024C11.5465 12.2578 11.0646 12.4578 10.562 12.4583H2.43702C1.93439 12.4578 1.45251 12.2578 1.09709 11.9024C0.741679 11.547 0.541755 11.0651 0.541182 10.5625V5.14583C0.541182 5.07401 0.512648 5.00512 0.461857 4.95433C0.411066 4.90354 0.342178 4.875 0.270349 4.875C0.198519 4.875 0.129632 4.90354 0.0788407 4.95433C0.0280496 5.00512 -0.000484559 5.07401 -0.000484559 5.14583V10.5625C0.000232297 11.2087 0.25727 11.8283 0.714234 12.2853C1.1712 12.7422 1.79077 12.9993 2.43702 13H10.562C11.2083 12.9993 11.8278 12.7422 12.2848 12.2853C12.7418 11.8283 12.9988 11.2087 12.9995 10.5625V5.14583C12.9995 5.07401 12.971 5.00512 12.9202 4.95433C12.8694 4.90354 12.8005 4.875 12.7287 4.875Z" fill="white"/>
</svg>
