<svg width="100%" height="100%" viewBox="0 0 13 11" fill="none" xmlns="http://www.w3.org/2000/svg" preserveAspectRatio="none">
<path d="M12.2202 1.26468C12.139 1.17289 12.0081 1.14981 11.9007 1.20642C11.8339 1.2416 11.7083 1.28776 11.5592 1.33338C11.7473 1.07616 11.8985 0.788169 11.9653 0.529303C11.9942 0.417733 11.952 0.300117 11.8601 0.233614C11.7682 0.167661 11.6458 0.167661 11.5539 0.233614C11.4091 0.33749 10.7102 0.649668 10.2683 0.750795C9.26957 -0.148913 8.10738 -0.242346 6.89924 0.483136C5.91712 1.07287 5.70338 2.27211 5.74506 3.00309C3.49709 2.7805 2.09979 1.55927 1.31324 0.54854C1.2582 0.47764 1.1695 0.440267 1.08614 0.445763C0.998509 0.452358 0.919427 0.502373 0.874542 0.579867C0.502641 1.22566 0.399513 1.9396 0.577449 2.64474C0.674699 3.02947 0.844619 3.36858 1.04179 3.64338C0.947213 3.59557 0.85584 3.53566 0.769811 3.46421C0.690729 3.39716 0.58012 3.38452 0.486611 3.42904C0.393635 3.47465 0.334323 3.57138 0.334323 3.67746C0.334323 4.88825 1.07065 5.69617 1.75834 6.11827C1.6472 6.10453 1.53125 6.07925 1.41423 6.04242C1.31377 6.01109 1.20476 6.04242 1.1353 6.12376C1.06584 6.20456 1.04927 6.31997 1.09255 6.41835C1.47888 7.29718 2.21093 7.90175 3.11664 8.12104C2.32581 8.59865 1.26728 8.83278 0.297988 8.71791C0.172418 8.69978 0.0527257 8.78167 0.0131845 8.90588C-0.0263567 9.03009 0.0254743 9.16639 0.136083 9.23015C1.60659 10.0793 2.93603 10.3827 4.08486 10.3827C5.75682 10.3827 7.04725 9.74073 7.83273 9.20377C9.95032 7.7583 11.2701 5.16305 11.0863 2.84096C11.4256 2.58319 11.9333 2.10723 12.248 1.59554C12.3132 1.49222 12.3014 1.35591 12.2202 1.26468Z" fill="white"/>
</svg>
