<svg width="100%" height="100%" viewBox="0 0 17 11" fill="none" xmlns="http://www.w3.org/2000/svg" preserveAspectRatio="none">
<path d="M16.2917 3.87791C16.3268 2.86404 16.105 1.85775 15.6471 0.952489C15.3365 0.581038 14.9053 0.330367 14.4288 0.244155C12.4579 0.0653191 10.4788 -0.00798002 8.50006 0.0245721C6.52852 -0.00945748 4.55656 0.0614763 2.59256 0.237072C2.20427 0.307705 1.84493 0.489835 1.55839 0.761239C0.920893 1.34916 0.85006 2.35499 0.779226 3.20499C0.676456 4.73326 0.676456 6.26671 0.779226 7.79499C0.799719 8.2734 0.870951 8.74829 0.991726 9.21166C1.07713 9.56941 1.24993 9.9004 1.49464 10.175C1.78312 10.4608 2.15083 10.6533 2.55006 10.7275C4.07717 10.916 5.61588 10.9941 7.15423 10.9612C9.63339 10.9967 11.808 10.9612 14.3792 10.7629C14.7883 10.6932 15.1663 10.5005 15.463 10.2104C15.6613 10.012 15.8094 9.76918 15.8951 9.50207C16.1484 8.72476 16.2728 7.91123 16.2634 7.09374C16.2917 6.69707 16.2917 4.30291 16.2917 3.87791ZM6.89923 7.51874V3.13416L11.0926 5.33707C9.91673 5.98874 8.36548 6.72541 6.89923 7.51874Z" fill="white"/>
</svg>
