<svg width="1326" height="1014" viewBox="0 0 1326 1014" fill="none" xmlns="http://www.w3.org/2000/svg">
<g id="Frame 20" clip-path="url(#clip0_910:146)">
<g id="Group 3151">
<g id="Ellipse 27" filter="url(#filter0_f_910:146)">
<circle cx="642.5" cy="523.5" r="164.5" fill="url(#paint0_linear_910:146)"/>
</g>
<circle id="Ellipse 28" cx="642.5" cy="523.5" r="141.547" fill="#FAFAFA"/>
</g>
<text id="Escribelo.ai" fill="url(#paint1_linear_910:146)" xml:space="preserve" style="white-space: pre" font-family="Inter" font-size="32" font-weight="bold" letter-spacing="0em"><tspan x="551.609" y="533.136">Escribelo.ai </tspan></text>
<g id="Ellipse 29" filter="url(#filter1_f_910:146)">
<circle cx="817" cy="455" r="10" fill="#6E6CFF"/>
</g>
<g id="Ellipse 31" filter="url(#filter2_f_910:146)">
<circle cx="653" cy="342" r="10" fill="#4285F4"/>
</g>
<g id="Ellipse 32" filter="url(#filter3_f_910:146)">
<circle cx="511" cy="390" r="10" fill="#19B6F0"/>
</g>
<g id="Ellipse 33" filter="url(#filter4_f_910:146)">
<circle cx="440" cy="544" r="10" fill="#87E9E5"/>
</g>
<g id="Ellipse 34" filter="url(#filter5_f_910:146)">
<circle cx="540" cy="698" r="10" fill="#87E9E5"/>
</g>
<path id="Vector 6" d="M420.5 542C388.282 529.967 382 576.5 329.5 576.5" stroke="#19B6F0" stroke-width="3" stroke-linejoin="round" stroke-dasharray="10 10"/>
<g id="Ellipse 30" filter="url(#filter6_f_910:146)">
<circle cx="807" cy="609" r="10" fill="#6E6CFF"/>
</g>
<path id="Vector 2" d="M837.37 448.546C836.567 448.342 835.751 448.827 835.546 449.63C835.342 450.433 835.827 451.249 836.63 451.454L837.37 448.546ZM837 450C836.63 451.454 836.63 451.454 836.63 451.454C836.63 451.454 836.63 451.454 836.63 451.454C836.63 451.454 836.63 451.454 836.63 451.454C836.631 451.454 836.631 451.454 836.632 451.454C836.632 451.454 836.634 451.455 836.636 451.455C836.639 451.456 836.644 451.457 836.651 451.459C836.665 451.462 836.685 451.468 836.711 451.474C836.764 451.488 836.843 451.507 836.946 451.533C837.153 451.585 837.46 451.662 837.859 451.76C838.657 451.956 839.825 452.241 841.312 452.593L842.003 449.673C840.526 449.324 839.366 449.041 838.576 448.847C838.181 448.75 837.879 448.674 837.676 448.623C837.574 448.598 837.497 448.578 837.446 448.566C837.42 448.559 837.401 448.554 837.388 448.551C837.382 448.549 837.377 448.548 837.374 448.547C837.373 448.547 837.372 448.547 837.371 448.547C837.371 448.546 837.37 448.546 837.37 448.546C837.37 448.546 837.37 448.546 837.37 448.546C837.37 448.546 837.37 448.546 837.37 448.546C837.37 448.546 837.37 448.546 837 450ZM850.684 454.723C853.518 455.342 856.685 456.012 860.095 456.699L860.687 453.758C857.295 453.075 854.144 452.408 851.325 451.792L850.684 454.723ZM869.56 458.52C872.634 459.082 875.817 459.636 879.06 460.162L879.54 457.201C876.319 456.678 873.156 456.128 870.1 455.569L869.56 458.52ZM888.6 461.594C891.797 462.033 895.007 462.43 898.184 462.767L898.5 459.783C895.357 459.45 892.179 459.058 889.008 458.622L888.6 461.594ZM907.816 463.597C911.155 463.811 914.405 463.935 917.509 463.944L917.518 460.944C914.486 460.935 911.297 460.814 908.008 460.603L907.816 463.597ZM927.268 463.519C930.901 463.152 934.199 462.53 936.994 461.579L936.027 458.739C933.518 459.593 930.461 460.181 926.967 460.534L927.268 463.519ZM945.416 455.366C946.274 453.75 946.641 451.918 946.496 449.893L943.504 450.107C943.612 451.624 943.336 452.887 942.766 453.96L945.416 455.366ZM946.496 449.893C946.387 448.362 946.406 446.782 946.543 445.162L943.553 444.91C943.405 446.668 943.382 448.405 943.504 450.107L946.496 449.893ZM948.449 435.745C949.366 432.747 950.558 429.699 951.952 426.654L949.224 425.405C947.786 428.548 946.543 431.721 945.58 434.868L948.449 435.745ZM956.454 417.935C958.092 415.07 959.841 412.262 961.634 409.558L959.133 407.9C957.31 410.651 955.524 413.516 953.849 416.447L956.454 417.935ZM967.306 401.486C969.413 398.642 971.475 396.014 973.376 393.676L971.049 391.783C969.123 394.151 967.033 396.815 964.896 399.699L967.306 401.486ZM979.775 386.149C980.804 384.992 981.633 384.087 982.204 383.473C982.489 383.165 982.71 382.931 982.858 382.774C982.933 382.695 982.989 382.636 983.026 382.597C983.045 382.578 983.059 382.563 983.068 382.554C983.072 382.549 983.076 382.545 983.078 382.543C983.079 382.542 983.08 382.541 983.08 382.541C983.08 382.541 983.08 382.54 983.081 382.54C983.081 382.54 983.081 382.54 983.081 382.54C983.081 382.54 983.081 382.54 983.081 382.54C983.081 382.54 983.08 382.54 982 381.5C980.92 380.46 980.919 380.46 980.919 380.46C980.919 380.46 980.919 380.46 980.919 380.46C980.919 380.46 980.919 380.46 980.919 380.46C980.919 380.46 980.918 380.461 980.918 380.461C980.917 380.462 980.916 380.463 980.915 380.465C980.912 380.467 980.908 380.472 980.903 380.477C980.892 380.488 980.877 380.504 980.856 380.525C980.816 380.568 980.757 380.63 980.679 380.712C980.525 380.875 980.297 381.117 980.006 381.431C979.422 382.06 978.578 382.981 977.534 384.154L979.775 386.149Z" fill="#6E6CFF"/>
<g id="Rectangle 3" filter="url(#filter7_d_910:146)">
<rect x="999" y="268" width="277" height="168" rx="10" fill="white"/>
</g>
<g id="Rectangle 25" filter="url(#filter8_d_910:146)">
<rect x="530" y="76" width="277" height="168" rx="10" fill="white"/>
</g>
<g id="Rectangle 26" filter="url(#filter9_d_910:146)">
<rect x="153" y="160" width="277" height="168" rx="10" fill="white"/>
</g>
<g id="Rectangle 27" filter="url(#filter10_d_910:146)">
<rect x="46" y="493" width="277" height="168" rx="10" fill="white"/>
</g>
<g id="Rectangle 28" filter="url(#filter11_d_910:146)">
<rect x="352" y="804" width="280" height="189" rx="10" fill="white"/>
</g>
<text id="Mejora exponencialmente tu marketing de contenidos" fill="url(#paint2_linear_910:146)" xml:space="preserve" style="white-space: pre" font-family="Oxanium" font-size="16" font-weight="bold" letter-spacing="0em"><tspan x="1032" y="295.64">Mejora exponencialmente </tspan><tspan x="1032" y="315.64">tu marketing de contenidos&#10;</tspan></text>
<text id="Acelera tu productividad hasta 10 veces m&#195;&#161;s" fill="url(#paint3_linear_910:146)" xml:space="preserve" style="white-space: pre" font-family="Oxanium" font-size="16" font-weight="bold" letter-spacing="0em"><tspan x="569" y="103.64">Acelera tu productividad </tspan><tspan x="569" y="123.64">hasta 10 veces m&#xe1;s&#10;</tspan></text>
<text id="Mejora los resultados de tus anuncios" fill="url(#paint4_linear_910:146)" xml:space="preserve" style="white-space: pre" font-family="Oxanium" font-size="16" font-weight="bold" letter-spacing="0em"><tspan x="192" y="187.64">Mejora los resultados de </tspan><tspan x="192" y="207.64">tus anuncios</tspan></text>
<text id="Crea contenido relevante que posicione" fill="url(#paint5_linear_910:146)" xml:space="preserve" style="white-space: pre" font-family="Oxanium" font-size="16" font-weight="bold" letter-spacing="0em"><tspan x="85" y="520.64">Crea contenido relevante </tspan><tspan x="85" y="540.64">que posicione</tspan></text>
<text id="Dile adi&#195;&#179;s a los bloqueos creativos" fill="url(#paint6_linear_910:146)" xml:space="preserve" style="white-space: pre" font-family="Oxanium" font-size="16" font-weight="bold" letter-spacing="0em"><tspan x="391" y="831.64">Dile adi&#xf3;s a los bloqueos </tspan><tspan x="391" y="851.64">creativos&#10;</tspan></text>
<text id="Dale vida a tu contenido antiguo y deja que nuestra inteligencia artificial genere contenido excepcional para ti." fill="#05010F" xml:space="preserve" style="white-space: pre" font-family="Nunito" font-size="14" letter-spacing="0em"><tspan x="1032" y="340.106">Dale vida a tu contenido antiguo </tspan><tspan x="1032" y="359.106">y deja que nuestra inteligencia </tspan><tspan x="1032" y="378.106">artificial genere contenido </tspan><tspan x="1032" y="397.106">excepcional para ti.</tspan></text>
<text id="Deja que Escr&#195;&#173;belo se encargue del 80% del trabajo inicial y t&#195;&#186; dale tu toque personal con un 20% de esfuerzo final." fill="#05010F" xml:space="preserve" style="white-space: pre" font-family="Nunito" font-size="14" letter-spacing="0em"><tspan x="569" y="150.106">Deja que Escr&#xed;belo se encargue </tspan><tspan x="569" y="169.106">del 80% del trabajo inicial y t&#xfa; </tspan><tspan x="569" y="188.106">dale tu toque personal con un </tspan><tspan x="569" y="207.106">20% de esfuerzo final.</tspan></text>
<text id="Deja que Escr&#195;&#173;belo te ayude a incrementar las ventas y aumentar el ROAS de tus campa&#195;&#177;as publicitarias con Intenligencia Artificial." fill="#05010F" xml:space="preserve" style="white-space: pre" font-family="Nunito" font-size="14" letter-spacing="0em"><tspan x="192" y="236.106">Deja que Escr&#xed;belo te ayude a </tspan><tspan x="192" y="255.106">incrementar las ventas y </tspan><tspan x="192" y="274.106">aumentar el ROAS de tus </tspan><tspan x="192" y="293.106">campa&#xf1;as publicitarias con </tspan><tspan x="192" y="312.106">Intenligencia Artificial. </tspan></text>
<text id="Desde un art&#195;&#173;culo de blog hasta una web entera, Escr&#195;&#173;belo te ayudar&#195;&#161; a tener contenido pensado para el SEO." fill="#05010F" xml:space="preserve" style="white-space: pre" font-family="Nunito" font-size="14" letter-spacing="0em"><tspan x="85" y="568.106">Desde un art&#xed;culo de blog hasta </tspan><tspan x="85" y="587.106">una web entera, Escr&#xed;belo te </tspan><tspan x="85" y="606.106">ayudar&#xe1; a tener contenido </tspan><tspan x="85" y="625.106">pensado para el SEO.</tspan></text>
<text id="Si te quedaste en blanco, deja que Escr&#195;&#173;belo te recomiende fragmentos creativos para tu pr&#195;&#179;ximo contenido y olv&#195;&#173;date de contratar redactores principiantes." fill="#05010F" xml:space="preserve" style="white-space: pre" font-family="Nunito" font-size="14" letter-spacing="0em"><tspan x="391" y="879.106">Si te quedaste en blanco, deja que </tspan><tspan x="391" y="898.106">Escr&#xed;belo te recomiende </tspan><tspan x="391" y="917.106">fragmentos creativos para tu </tspan><tspan x="391" y="936.106">pr&#xf3;ximo contenido y olv&#xed;date de </tspan><tspan x="391" y="955.106">contratar redactores principiantes.</tspan></text>
<path id="Vector 3" d="M823.5 620.5C823.5 620.5 883 678 900.5 669C918 660 970.5 688.5 970.5 688.5" stroke="#6E6CFF" stroke-width="3" stroke-linejoin="round" stroke-dasharray="10 10"/>
<path id="Vector 4" d="M663 319C685.101 313.587 720.414 292.409 684.858 251" stroke="#4285F4" stroke-width="3" stroke-linejoin="round" stroke-dasharray="10 10"/>
<path id="Vector 5" d="M500 375C466.807 337.57 386.5 375 363.5 335.5" stroke="#19B6F0" stroke-width="3" stroke-linejoin="round" stroke-dasharray="10 10"/>
<g id="Rectangle 24" filter="url(#filter12_d_910:146)">
<rect x="937" y="697" width="277" height="168" rx="10" fill="white"/>
</g>
<text id="H&#195;&#161;zlo en m&#195;&#161;s idiomas sin preocuparte" fill="url(#paint7_linear_910:146)" xml:space="preserve" style="white-space: pre" font-family="Oxanium" font-size="16" font-weight="bold" letter-spacing="0em"><tspan x="976" y="724.64">H&#xe1;zlo en m&#xe1;s idiomas sin </tspan><tspan x="976" y="744.64">preocuparte</tspan></text>
<text id="Olv&#195;&#173;date de traducir manualmente tu contenido, deja que Escr&#195;&#173;belo lo haga por t&#195;&#173; en el idioma que t&#195;&#186; elijas." fill="#05010F" xml:space="preserve" style="white-space: pre" font-family="Nunito" font-size="14" letter-spacing="0em"><tspan x="976" y="771.106">Olv&#xed;date de traducir </tspan><tspan x="976" y="790.106">manualmente tu contenido, deja </tspan><tspan x="976" y="809.106">que Escr&#xed;belo lo haga por t&#xed; en el </tspan><tspan x="976" y="828.106">idioma que t&#xfa; elijas.</tspan></text>
<path id="Vector 7" d="M532 708C469 739.175 552.25 774.373 490 797" stroke="#19B6F0" stroke-width="3" stroke-linejoin="round" stroke-dasharray="10 10"/>
</g>
<defs>
<filter id="filter0_f_910:146" x="408" y="289" width="469" height="469" filterUnits="userSpaceOnUse" color-interpolation-filters="sRGB">
<feFlood flood-opacity="0" result="BackgroundImageFix"/>
<feBlend mode="normal" in="SourceGraphic" in2="BackgroundImageFix" result="shape"/>
<feGaussianBlur stdDeviation="35" result="effect1_foregroundBlur_910:146"/>
</filter>
<filter id="filter1_f_910:146" x="787" y="425" width="60" height="60" filterUnits="userSpaceOnUse" color-interpolation-filters="sRGB">
<feFlood flood-opacity="0" result="BackgroundImageFix"/>
<feBlend mode="normal" in="SourceGraphic" in2="BackgroundImageFix" result="shape"/>
<feGaussianBlur stdDeviation="10" result="effect1_foregroundBlur_910:146"/>
</filter>
<filter id="filter2_f_910:146" x="623" y="312" width="60" height="60" filterUnits="userSpaceOnUse" color-interpolation-filters="sRGB">
<feFlood flood-opacity="0" result="BackgroundImageFix"/>
<feBlend mode="normal" in="SourceGraphic" in2="BackgroundImageFix" result="shape"/>
<feGaussianBlur stdDeviation="10" result="effect1_foregroundBlur_910:146"/>
</filter>
<filter id="filter3_f_910:146" x="481" y="360" width="60" height="60" filterUnits="userSpaceOnUse" color-interpolation-filters="sRGB">
<feFlood flood-opacity="0" result="BackgroundImageFix"/>
<feBlend mode="normal" in="SourceGraphic" in2="BackgroundImageFix" result="shape"/>
<feGaussianBlur stdDeviation="10" result="effect1_foregroundBlur_910:146"/>
</filter>
<filter id="filter4_f_910:146" x="410" y="514" width="60" height="60" filterUnits="userSpaceOnUse" color-interpolation-filters="sRGB">
<feFlood flood-opacity="0" result="BackgroundImageFix"/>
<feBlend mode="normal" in="SourceGraphic" in2="BackgroundImageFix" result="shape"/>
<feGaussianBlur stdDeviation="10" result="effect1_foregroundBlur_910:146"/>
</filter>
<filter id="filter5_f_910:146" x="510" y="668" width="60" height="60" filterUnits="userSpaceOnUse" color-interpolation-filters="sRGB">
<feFlood flood-opacity="0" result="BackgroundImageFix"/>
<feBlend mode="normal" in="SourceGraphic" in2="BackgroundImageFix" result="shape"/>
<feGaussianBlur stdDeviation="10" result="effect1_foregroundBlur_910:146"/>
</filter>
<filter id="filter6_f_910:146" x="777" y="579" width="60" height="60" filterUnits="userSpaceOnUse" color-interpolation-filters="sRGB">
<feFlood flood-opacity="0" result="BackgroundImageFix"/>
<feBlend mode="normal" in="SourceGraphic" in2="BackgroundImageFix" result="shape"/>
<feGaussianBlur stdDeviation="10" result="effect1_foregroundBlur_910:146"/>
</filter>
<filter id="filter7_d_910:146" x="939" y="224" width="397" height="288" filterUnits="userSpaceOnUse" color-interpolation-filters="sRGB">
<feFlood flood-opacity="0" result="BackgroundImageFix"/>
<feColorMatrix in="SourceAlpha" type="matrix" values="0 0 0 0 0 0 0 0 0 0 0 0 0 0 0 0 0 0 127 0" result="hardAlpha"/>
<feOffset dy="16"/>
<feGaussianBlur stdDeviation="30"/>
<feComposite in2="hardAlpha" operator="out"/>
<feColorMatrix type="matrix" values="0 0 0 0 0 0 0 0 0 0 0 0 0 0 0 0 0 0 0.12 0"/>
<feBlend mode="normal" in2="BackgroundImageFix" result="effect1_dropShadow_910:146"/>
<feBlend mode="normal" in="SourceGraphic" in2="effect1_dropShadow_910:146" result="shape"/>
</filter>
<filter id="filter8_d_910:146" x="470" y="32" width="397" height="288" filterUnits="userSpaceOnUse" color-interpolation-filters="sRGB">
<feFlood flood-opacity="0" result="BackgroundImageFix"/>
<feColorMatrix in="SourceAlpha" type="matrix" values="0 0 0 0 0 0 0 0 0 0 0 0 0 0 0 0 0 0 127 0" result="hardAlpha"/>
<feOffset dy="16"/>
<feGaussianBlur stdDeviation="30"/>
<feComposite in2="hardAlpha" operator="out"/>
<feColorMatrix type="matrix" values="0 0 0 0 0 0 0 0 0 0 0 0 0 0 0 0 0 0 0.12 0"/>
<feBlend mode="normal" in2="BackgroundImageFix" result="effect1_dropShadow_910:146"/>
<feBlend mode="normal" in="SourceGraphic" in2="effect1_dropShadow_910:146" result="shape"/>
</filter>
<filter id="filter9_d_910:146" x="93" y="116" width="397" height="288" filterUnits="userSpaceOnUse" color-interpolation-filters="sRGB">
<feFlood flood-opacity="0" result="BackgroundImageFix"/>
<feColorMatrix in="SourceAlpha" type="matrix" values="0 0 0 0 0 0 0 0 0 0 0 0 0 0 0 0 0 0 127 0" result="hardAlpha"/>
<feOffset dy="16"/>
<feGaussianBlur stdDeviation="30"/>
<feComposite in2="hardAlpha" operator="out"/>
<feColorMatrix type="matrix" values="0 0 0 0 0 0 0 0 0 0 0 0 0 0 0 0 0 0 0.12 0"/>
<feBlend mode="normal" in2="BackgroundImageFix" result="effect1_dropShadow_910:146"/>
<feBlend mode="normal" in="SourceGraphic" in2="effect1_dropShadow_910:146" result="shape"/>
</filter>
<filter id="filter10_d_910:146" x="-14" y="449" width="397" height="288" filterUnits="userSpaceOnUse" color-interpolation-filters="sRGB">
<feFlood flood-opacity="0" result="BackgroundImageFix"/>
<feColorMatrix in="SourceAlpha" type="matrix" values="0 0 0 0 0 0 0 0 0 0 0 0 0 0 0 0 0 0 127 0" result="hardAlpha"/>
<feOffset dy="16"/>
<feGaussianBlur stdDeviation="30"/>
<feComposite in2="hardAlpha" operator="out"/>
<feColorMatrix type="matrix" values="0 0 0 0 0 0 0 0 0 0 0 0 0 0 0 0 0 0 0.12 0"/>
<feBlend mode="normal" in2="BackgroundImageFix" result="effect1_dropShadow_910:146"/>
<feBlend mode="normal" in="SourceGraphic" in2="effect1_dropShadow_910:146" result="shape"/>
</filter>
<filter id="filter11_d_910:146" x="292" y="760" width="400" height="309" filterUnits="userSpaceOnUse" color-interpolation-filters="sRGB">
<feFlood flood-opacity="0" result="BackgroundImageFix"/>
<feColorMatrix in="SourceAlpha" type="matrix" values="0 0 0 0 0 0 0 0 0 0 0 0 0 0 0 0 0 0 127 0" result="hardAlpha"/>
<feOffset dy="16"/>
<feGaussianBlur stdDeviation="30"/>
<feComposite in2="hardAlpha" operator="out"/>
<feColorMatrix type="matrix" values="0 0 0 0 0 0 0 0 0 0 0 0 0 0 0 0 0 0 0.12 0"/>
<feBlend mode="normal" in2="BackgroundImageFix" result="effect1_dropShadow_910:146"/>
<feBlend mode="normal" in="SourceGraphic" in2="effect1_dropShadow_910:146" result="shape"/>
</filter>
<filter id="filter12_d_910:146" x="877" y="653" width="397" height="288" filterUnits="userSpaceOnUse" color-interpolation-filters="sRGB">
<feFlood flood-opacity="0" result="BackgroundImageFix"/>
<feColorMatrix in="SourceAlpha" type="matrix" values="0 0 0 0 0 0 0 0 0 0 0 0 0 0 0 0 0 0 127 0" result="hardAlpha"/>
<feOffset dy="16"/>
<feGaussianBlur stdDeviation="30"/>
<feComposite in2="hardAlpha" operator="out"/>
<feColorMatrix type="matrix" values="0 0 0 0 0 0 0 0 0 0 0 0 0 0 0 0 0 0 0.12 0"/>
<feBlend mode="normal" in2="BackgroundImageFix" result="effect1_dropShadow_910:146"/>
<feBlend mode="normal" in="SourceGraphic" in2="effect1_dropShadow_910:146" result="shape"/>
</filter>
<linearGradient id="paint0_linear_910:146" x1="494.049" y1="359" x2="763.439" y2="359" gradientUnits="userSpaceOnUse">
<stop stop-color="#06D9CA"/>
<stop offset="0.510417" stop-color="#19B6F0"/>
<stop offset="1" stop-color="#6E6CFF"/>
</linearGradient>
<linearGradient id="paint1_linear_910:146" x1="554.561" y1="502" x2="715.049" y2="502" gradientUnits="userSpaceOnUse">
<stop stop-color="#06D9CA"/>
<stop offset="0.510417" stop-color="#19B6F0"/>
<stop offset="1" stop-color="#6E6CFF"/>
</linearGradient>
<linearGradient id="paint2_linear_910:146" x1="1042.24" y1="281" x2="1214.2" y2="281" gradientUnits="userSpaceOnUse">
<stop stop-color="#06D9CA"/>
<stop offset="0.510417" stop-color="#19B6F0"/>
<stop offset="1" stop-color="#6E6CFF"/>
</linearGradient>
<linearGradient id="paint3_linear_910:146" x1="578.659" y1="89" x2="740.784" y2="89" gradientUnits="userSpaceOnUse">
<stop stop-color="#06D9CA"/>
<stop offset="0.510417" stop-color="#19B6F0"/>
<stop offset="1" stop-color="#6E6CFF"/>
</linearGradient>
<linearGradient id="paint4_linear_910:146" x1="201.659" y1="173" x2="363.784" y2="173" gradientUnits="userSpaceOnUse">
<stop stop-color="#06D9CA"/>
<stop offset="0.510417" stop-color="#19B6F0"/>
<stop offset="1" stop-color="#6E6CFF"/>
</linearGradient>
<linearGradient id="paint5_linear_910:146" x1="94.6585" y1="506" x2="256.784" y2="506" gradientUnits="userSpaceOnUse">
<stop stop-color="#06D9CA"/>
<stop offset="0.510417" stop-color="#19B6F0"/>
<stop offset="1" stop-color="#6E6CFF"/>
</linearGradient>
<linearGradient id="paint6_linear_910:146" x1="400.659" y1="817" x2="562.784" y2="817" gradientUnits="userSpaceOnUse">
<stop stop-color="#06D9CA"/>
<stop offset="0.510417" stop-color="#19B6F0"/>
<stop offset="1" stop-color="#6E6CFF"/>
</linearGradient>
<linearGradient id="paint7_linear_910:146" x1="985.659" y1="710" x2="1147.78" y2="710" gradientUnits="userSpaceOnUse">
<stop stop-color="#06D9CA"/>
<stop offset="0.510417" stop-color="#19B6F0"/>
<stop offset="1" stop-color="#6E6CFF"/>
</linearGradient>
<clipPath id="clip0_910:146">
<rect width="1326" height="1014" fill="white"/>
</clipPath>
</defs>
</svg>
